<?xml version="1.0" encoding="UTF-8" standalone="no"?><!DOCTYPE svg PUBLIC "-//W3C//DTD SVG 1.1//EN" "http://www.w3.org/Graphics/SVG/1.1/DTD/svg11.dtd"><svg width="100%" height="100%" viewBox="0 0 409 114" version="1.1" xmlns="http://www.w3.org/2000/svg" xmlns:xlink="http://www.w3.org/1999/xlink" xml:space="preserve" xmlns:serif="http://www.serif.com/" style="fill-rule:evenodd;clip-rule:evenodd;stroke-linecap:round;stroke-linejoin:round;stroke-miterlimit:1.5;"><g><rect x="0.524" y="0" width="407.79" height="71.75" style="fill:#00acd7;"/><path d="M86.085,26.471l0,18.917l10.015,-0c0.543,-0 0.932,0.104 1.167,0.312c0.236,0.208 0.353,0.484 0.353,0.828c0,0.325 -0.117,0.597 -0.353,0.814c-0.235,0.217 -0.624,0.325 -1.167,0.325l-17.831,0c-0.543,0 -0.932,-0.108 -1.167,-0.325c-0.235,-0.217 -0.353,-0.489 -0.353,-0.814c0,-0.344 0.118,-0.62 0.353,-0.828c0.235,-0.208 0.624,-0.312 1.167,-0.312l5.509,-0l0,-18.917l-4.939,-0c-0.543,-0 -0.932,-0.109 -1.167,-0.326c-0.235,-0.217 -0.353,-0.498 -0.353,-0.841c0,-0.326 0.118,-0.598 0.353,-0.815c0.235,-0.217 0.624,-0.325 1.167,-0.325l4.939,-0l0,-3.447c0,-1.918 0.779,-3.583 2.335,-4.994c1.556,-1.411 3.618,-2.117 6.188,-2.117c2.153,-0 4.451,0.199 6.893,0.597c0.923,0.145 1.48,0.317 1.67,0.516c0.19,0.199 0.285,0.461 0.285,0.787c-0,0.325 -0.109,0.592 -0.326,0.8c-0.217,0.208 -0.507,0.313 -0.869,0.313c-0.144,-0 -0.389,-0.028 -0.732,-0.082c-2.733,-0.416 -5.04,-0.624 -6.921,-0.624c-1.991,-0 -3.524,0.488 -4.601,1.465c-1.076,0.978 -1.615,2.09 -1.615,3.339l0,3.447l10.667,-0c0.543,-0 0.932,0.108 1.167,0.325c0.235,0.217 0.353,0.498 0.353,0.842c-0,0.325 -0.118,0.597 -0.353,0.814c-0.235,0.217 -0.624,0.326 -1.167,0.326l-10.667,-0Z" style="fill:#f5f5f5;fill-rule:nonzero;"/><path d="M133.69,35.97c0,3.474 -1.244,6.441 -3.732,8.902c-2.488,2.461 -5.487,3.691 -8.997,3.691c-3.546,0 -6.559,-1.235 -9.038,-3.705c-2.478,-2.469 -3.718,-5.432 -3.718,-8.888c0,-3.474 1.24,-6.446 3.718,-8.916c2.479,-2.47 5.492,-3.705 9.038,-3.705c3.51,0 6.509,1.231 8.997,3.692c2.488,2.46 3.732,5.437 3.732,8.929Zm-2.307,-0c0,-2.859 -1.018,-5.293 -3.053,-7.301c-2.036,-2.008 -4.501,-3.013 -7.396,-3.013c-2.895,0 -5.36,1.009 -7.396,3.027c-2.035,2.017 -3.053,4.446 -3.053,7.287c-0,2.822 1.018,5.247 3.053,7.273c2.036,2.027 4.501,3.04 7.396,3.04c2.895,0 5.36,-1.008 7.396,-3.026c2.035,-2.017 3.053,-4.446 3.053,-7.287Z" style="fill:#f5f5f5;fill-rule:nonzero;"/><path d="M151.576,24.164l-0,5.753c2.967,-2.677 5.188,-4.401 6.663,-5.17c1.475,-0.769 2.836,-1.153 4.085,-1.153c1.357,-0 2.619,0.457 3.786,1.37c1.167,0.914 1.75,1.606 1.75,2.077c0,0.343 -0.113,0.628 -0.339,0.854c-0.226,0.227 -0.511,0.34 -0.855,0.34c-0.181,-0 -0.335,-0.032 -0.461,-0.095c-0.127,-0.064 -0.362,-0.267 -0.706,-0.611c-0.633,-0.633 -1.185,-1.067 -1.656,-1.303c-0.47,-0.235 -0.931,-0.353 -1.384,-0.353c-0.995,0 -2.194,0.399 -3.596,1.195c-1.402,0.796 -3.831,2.741 -7.287,5.835l-0,12.485l10.096,-0c0.561,-0 0.959,0.104 1.194,0.312c0.236,0.208 0.353,0.484 0.353,0.828c0,0.325 -0.117,0.597 -0.353,0.814c-0.235,0.217 -0.633,0.325 -1.194,0.325l-17.886,0c-0.542,0 -0.931,-0.104 -1.167,-0.312c-0.235,-0.208 -0.352,-0.475 -0.352,-0.8c-0,-0.308 0.113,-0.566 0.339,-0.774c0.226,-0.208 0.62,-0.312 1.18,-0.312l5.51,0l0,-18.998l-4.207,-0c-0.543,-0 -0.932,-0.109 -1.167,-0.326c-0.235,-0.217 -0.353,-0.498 -0.353,-0.841c0,-0.326 0.113,-0.598 0.34,-0.815c0.226,-0.217 0.619,-0.325 1.18,-0.325l6.487,-0Z" style="fill:#f5f5f5;fill-rule:nonzero;"/><path d="M177.278,24.164l0,2.307c1.936,-2.081 3.881,-3.122 5.835,-3.122c1.176,0 2.208,0.313 3.094,0.937c0.887,0.624 1.629,1.569 2.226,2.836c1.013,-1.267 2.04,-2.212 3.08,-2.836c1.041,-0.624 2.086,-0.937 3.135,-0.937c1.647,0 2.958,0.534 3.935,1.602c1.285,1.375 1.927,2.877 1.927,4.505l0,15.932l1.927,-0c0.543,-0 0.932,0.104 1.167,0.312c0.236,0.208 0.353,0.484 0.353,0.828c0,0.325 -0.117,0.597 -0.353,0.814c-0.235,0.217 -0.624,0.325 -1.167,0.325l-4.206,0l-0,-17.994c-0,-1.158 -0.353,-2.117 -1.059,-2.877c-0.705,-0.76 -1.52,-1.14 -2.443,-1.14c-0.832,0 -1.709,0.312 -2.632,0.937c-0.923,0.624 -1.972,1.85 -3.148,3.677l-0,15.118l1.899,-0c0.543,-0 0.932,0.104 1.167,0.312c0.236,0.208 0.353,0.484 0.353,0.828c0,0.325 -0.117,0.597 -0.353,0.814c-0.235,0.217 -0.624,0.325 -1.167,0.325l-4.206,0l-0,-17.831c-0,-1.212 -0.358,-2.212 -1.072,-2.999c-0.715,-0.787 -1.516,-1.181 -2.402,-1.181c-0.815,0 -1.62,0.263 -2.416,0.787c-1.104,0.742 -2.262,2.018 -3.474,3.827l0,15.118l1.927,-0c0.543,-0 0.932,0.104 1.167,0.312c0.235,0.208 0.353,0.484 0.353,0.828c-0,0.325 -0.118,0.597 -0.353,0.814c-0.235,0.217 -0.624,0.325 -1.167,0.325l-6.134,0c-0.543,0 -0.932,-0.108 -1.167,-0.325c-0.235,-0.217 -0.353,-0.489 -0.353,-0.814c0,-0.344 0.118,-0.62 0.353,-0.828c0.235,-0.208 0.624,-0.312 1.167,-0.312l1.927,-0l0,-18.917l-1.927,-0c-0.543,-0 -0.932,-0.109 -1.167,-0.326c-0.235,-0.217 -0.353,-0.498 -0.353,-0.841c0,-0.326 0.118,-0.598 0.353,-0.815c0.235,-0.217 0.624,-0.325 1.167,-0.325l4.207,-0Z" style="fill:#f5f5f5;fill-rule:nonzero;"/><path d="M232.184,13.606l-0,31.782l3.039,-0c0.561,-0 0.959,0.104 1.195,0.312c0.235,0.208 0.352,0.484 0.352,0.828c0,0.325 -0.117,0.597 -0.352,0.814c-0.236,0.217 -0.634,0.325 -1.195,0.325l-5.346,0l-0,-4.532c-2.642,3.619 -5.998,5.428 -10.07,5.428c-2.062,0 -4.039,-0.547 -5.93,-1.642c-1.891,-1.095 -3.383,-2.655 -4.478,-4.682c-1.095,-2.026 -1.642,-4.116 -1.642,-6.269c0,-2.171 0.547,-4.266 1.642,-6.283c1.095,-2.018 2.587,-3.578 4.478,-4.682c1.891,-1.104 3.877,-1.656 5.958,-1.656c3.98,0 7.328,1.81 10.042,5.429l-0,-12.865l-3.04,-0c-0.561,-0 -0.959,-0.109 -1.194,-0.326c-0.236,-0.217 -0.353,-0.497 -0.353,-0.841c-0,-0.326 0.117,-0.597 0.353,-0.814c0.235,-0.218 0.633,-0.326 1.194,-0.326l5.347,-0Zm-2.307,22.364c-0,-2.895 -0.977,-5.338 -2.932,-7.328c-1.954,-1.99 -4.279,-2.986 -6.975,-2.986c-2.714,0 -5.048,0.996 -7.002,2.986c-1.954,1.99 -2.931,4.433 -2.931,7.328c-0,2.877 0.977,5.315 2.931,7.314c1.954,2 4.288,2.999 7.002,2.999c2.696,0 5.021,-0.999 6.975,-2.999c1.955,-1.999 2.932,-4.437 2.932,-7.314Z" style="fill:#f5f5f5;fill-rule:nonzero;"/><path d="M260.926,47.667l-0,-3.284c-3.312,2.787 -6.849,4.18 -10.612,4.18c-2.733,0 -4.868,-0.692 -6.406,-2.076c-1.538,-1.384 -2.307,-3.081 -2.307,-5.089c0,-2.208 1.014,-4.134 3.04,-5.781c2.027,-1.647 4.985,-2.47 8.875,-2.47c1.05,0 2.19,0.068 3.42,0.204c1.23,0.135 2.56,0.348 3.99,0.638l-0,-3.692c-0,-1.248 -0.579,-2.334 -1.737,-3.256c-1.158,-0.923 -2.895,-1.385 -5.211,-1.385c-1.774,0 -4.262,0.516 -7.464,1.547c-0.579,0.181 -0.95,0.272 -1.113,0.272c-0.289,-0 -0.538,-0.109 -0.746,-0.326c-0.208,-0.217 -0.312,-0.488 -0.312,-0.814c-0,-0.308 0.09,-0.552 0.271,-0.733c0.253,-0.271 1.276,-0.642 3.067,-1.113c2.823,-0.76 4.958,-1.14 6.405,-1.14c2.877,0 5.121,0.711 6.731,2.131c1.61,1.42 2.416,3.026 2.416,4.817l-0,15.091l3.039,-0c0.561,-0 0.959,0.104 1.194,0.312c0.236,0.208 0.353,0.484 0.353,0.828c0,0.325 -0.117,0.597 -0.353,0.814c-0.235,0.217 -0.633,0.325 -1.194,0.325l-5.346,0Zm-0,-11.344c-1.068,-0.308 -2.199,-0.534 -3.393,-0.679c-1.194,-0.145 -2.452,-0.217 -3.773,-0.217c-3.311,-0 -5.898,0.715 -7.762,2.144c-1.411,1.068 -2.117,2.343 -2.117,3.827c0,1.375 0.539,2.533 1.615,3.474c1.077,0.941 2.646,1.411 4.709,1.411c1.972,0 3.804,-0.393 5.496,-1.18c1.692,-0.787 3.433,-2.04 5.225,-3.759l-0,-5.021Z" style="fill:#f5f5f5;fill-rule:nonzero;"/><path d="M283.045,24.164l12.376,-0c0.543,-0 0.932,0.108 1.167,0.325c0.236,0.217 0.353,0.498 0.353,0.842c0,0.325 -0.117,0.597 -0.353,0.814c-0.235,0.217 -0.624,0.326 -1.167,0.326l-12.376,-0l0,15.171c0,1.321 0.529,2.425 1.588,3.311c1.058,0.887 2.61,1.33 4.655,1.33c1.538,0 3.202,-0.23 4.993,-0.692c1.792,-0.461 3.185,-0.981 4.18,-1.56c0.362,-0.236 0.661,-0.353 0.896,-0.353c0.289,-0 0.543,0.113 0.76,0.339c0.217,0.226 0.325,0.493 0.325,0.801c0,0.271 -0.117,0.524 -0.352,0.76c-0.579,0.597 -1.986,1.244 -4.221,1.94c-2.234,0.697 -4.374,1.045 -6.419,1.045c-2.659,0 -4.776,-0.624 -6.351,-1.873c-1.574,-1.248 -2.361,-2.931 -2.361,-5.048l0,-15.171l-4.207,-0c-0.542,-0 -0.931,-0.109 -1.167,-0.326c-0.235,-0.217 -0.352,-0.498 -0.352,-0.841c-0,-0.326 0.117,-0.598 0.352,-0.815c0.236,-0.217 0.625,-0.325 1.167,-0.325l4.207,-0l0,-6.731c0,-0.543 0.109,-0.932 0.326,-1.167c0.217,-0.236 0.488,-0.353 0.814,-0.353c0.344,-0 0.624,0.117 0.842,0.353c0.217,0.235 0.325,0.624 0.325,1.167l0,6.731Z" style="fill:#f5f5f5;fill-rule:nonzero;"/><path d="M327.637,47.667l0,-3.284c-3.311,2.787 -6.848,4.18 -10.612,4.18c-2.732,0 -4.867,-0.692 -6.405,-2.076c-1.538,-1.384 -2.307,-3.081 -2.307,-5.089c0,-2.208 1.013,-4.134 3.04,-5.781c2.026,-1.647 4.985,-2.47 8.875,-2.47c1.049,0 2.189,0.068 3.42,0.204c1.23,0.135 2.56,0.348 3.989,0.638l0,-3.692c0,-1.248 -0.579,-2.334 -1.737,-3.256c-1.158,-0.923 -2.895,-1.385 -5.211,-1.385c-1.773,0 -4.261,0.516 -7.463,1.547c-0.579,0.181 -0.95,0.272 -1.113,0.272c-0.29,-0 -0.538,-0.109 -0.747,-0.326c-0.208,-0.217 -0.312,-0.488 -0.312,-0.814c0,-0.308 0.091,-0.552 0.272,-0.733c0.253,-0.271 1.275,-0.642 3.067,-1.113c2.822,-0.76 4.957,-1.14 6.405,-1.14c2.877,0 5.12,0.711 6.731,2.131c1.61,1.42 2.415,3.026 2.415,4.817l0,15.091l3.04,-0c0.561,-0 0.959,0.104 1.194,0.312c0.235,0.208 0.353,0.484 0.353,0.828c0,0.325 -0.118,0.597 -0.353,0.814c-0.235,0.217 -0.633,0.325 -1.194,0.325l-5.347,0Zm0,-11.344c-1.067,-0.308 -2.198,-0.534 -3.392,-0.679c-1.194,-0.145 -2.452,-0.217 -3.773,-0.217c-3.311,-0 -5.898,0.715 -7.762,2.144c-1.411,1.068 -2.117,2.343 -2.117,3.827c-0,1.375 0.538,2.533 1.615,3.474c1.076,0.941 2.646,1.411 4.709,1.411c1.972,0 3.804,-0.393 5.496,-1.18c1.691,-0.787 3.433,-2.04 5.224,-3.759l0,-5.021Z" style="fill:#f5f5f5;fill-rule:nonzero;"/><rect x="0.524" y="71.75" width="135.93" height="40.94" style="fill:#f5f5f5;"/><rect x="136.454" y="71.75" width="135.93" height="40.94" style="fill:#f5f5f5;"/><rect x="272.384" y="71.75" width="135.93" height="40.94" style="fill:#f5f5f5;"/><path d="M38.565,100.669l-0,-17.18l6.48,0c1.141,0 2.012,0.055 2.614,0.164c0.843,0.141 1.55,0.409 2.121,0.803c0.57,0.395 1.029,0.947 1.377,1.658c0.347,0.711 0.521,1.492 0.521,2.344c0,1.461 -0.465,2.697 -1.394,3.709c-0.93,1.012 -2.61,1.518 -5.039,1.518l-4.407,-0l0,6.984l-2.273,-0Zm2.273,-9.012l4.442,0c1.468,0 2.511,-0.273 3.129,-0.82c0.617,-0.547 0.925,-1.317 0.925,-2.309c0,-0.718 -0.181,-1.334 -0.545,-1.845c-0.363,-0.512 -0.841,-0.85 -1.435,-1.014c-0.383,-0.102 -1.09,-0.152 -2.121,-0.152l-4.395,-0l0,6.14Z" style="fill:#2b2b2b;fill-rule:nonzero;"/><path d="M62.424,99.134c-0.781,0.664 -1.533,1.133 -2.256,1.406c-0.722,0.273 -1.498,0.41 -2.326,0.41c-1.367,0 -2.418,-0.334 -3.152,-1.002c-0.735,-0.668 -1.102,-1.521 -1.102,-2.56c0,-0.61 0.139,-1.166 0.416,-1.67c0.278,-0.504 0.641,-0.908 1.09,-1.213c0.449,-0.305 0.955,-0.535 1.518,-0.692c0.414,-0.109 1.039,-0.214 1.875,-0.316c1.703,-0.203 2.957,-0.445 3.761,-0.727c0.008,-0.289 0.012,-0.472 0.012,-0.55c0,-0.86 -0.199,-1.465 -0.598,-1.817c-0.539,-0.476 -1.339,-0.715 -2.402,-0.715c-0.992,0 -1.724,0.174 -2.197,0.522c-0.473,0.348 -0.822,0.963 -1.049,1.846l-2.062,-0.282c0.187,-0.882 0.496,-1.595 0.925,-2.138c0.43,-0.543 1.051,-0.961 1.864,-1.254c0.812,-0.293 1.754,-0.44 2.824,-0.44c1.062,0 1.926,0.125 2.59,0.375c0.664,0.25 1.152,0.565 1.465,0.944c0.312,0.379 0.531,0.857 0.656,1.435c0.07,0.36 0.105,1.008 0.105,1.946l0,2.812c0,1.961 0.045,3.201 0.135,3.721c0.09,0.519 0.268,1.017 0.533,1.494l-2.203,-0c-0.219,-0.438 -0.359,-0.949 -0.422,-1.535Zm-0.176,-4.711c-0.765,0.312 -1.914,0.578 -3.445,0.797c-0.867,0.125 -1.48,0.265 -1.84,0.422c-0.359,0.156 -0.636,0.384 -0.832,0.685c-0.195,0.301 -0.293,0.635 -0.293,1.002c0,0.563 0.213,1.031 0.639,1.406c0.426,0.375 1.049,0.563 1.869,0.563c0.813,-0 1.535,-0.178 2.168,-0.533c0.633,-0.356 1.098,-0.842 1.395,-1.459c0.226,-0.477 0.339,-1.18 0.339,-2.11l0,-0.773Z" style="fill:#2b2b2b;fill-rule:nonzero;"/><path d="M67.627,100.669l0,-12.445l1.899,-0l-0,1.886c0.484,-0.882 0.931,-1.465 1.342,-1.746c0.41,-0.281 0.861,-0.422 1.353,-0.422c0.711,0 1.434,0.227 2.168,0.68l-0.727,1.957c-0.515,-0.305 -1.031,-0.457 -1.546,-0.457c-0.461,0 -0.875,0.139 -1.243,0.416c-0.367,0.277 -0.628,0.662 -0.785,1.154c-0.234,0.75 -0.351,1.571 -0.351,2.461l-0,6.516l-2.11,-0Z" style="fill:#2b2b2b;fill-rule:nonzero;"/><path d="M74.799,96.954l2.086,-0.328c0.117,0.836 0.443,1.477 0.979,1.922c0.535,0.445 1.283,0.668 2.244,0.668c0.969,-0 1.687,-0.197 2.156,-0.592c0.469,-0.395 0.703,-0.857 0.703,-1.389c0,-0.476 -0.207,-0.851 -0.621,-1.125c-0.289,-0.187 -1.008,-0.425 -2.156,-0.715c-1.547,-0.39 -2.619,-0.728 -3.217,-1.013c-0.598,-0.285 -1.051,-0.68 -1.359,-1.184c-0.309,-0.504 -0.463,-1.06 -0.463,-1.67c-0,-0.554 0.127,-1.068 0.381,-1.541c0.254,-0.472 0.599,-0.865 1.037,-1.177c0.328,-0.243 0.775,-0.448 1.342,-0.616c0.566,-0.168 1.173,-0.252 1.822,-0.252c0.976,0 1.834,0.141 2.572,0.422c0.738,0.281 1.283,0.662 1.635,1.143c0.351,0.48 0.594,1.123 0.726,1.928l-2.062,0.281c-0.094,-0.641 -0.365,-1.141 -0.815,-1.5c-0.449,-0.36 -1.084,-0.539 -1.904,-0.539c-0.969,-0 -1.66,0.16 -2.074,0.48c-0.414,0.321 -0.621,0.696 -0.621,1.125c-0,0.274 0.086,0.52 0.258,0.738c0.172,0.227 0.441,0.415 0.808,0.563c0.211,0.078 0.832,0.258 1.864,0.539c1.492,0.398 2.533,0.725 3.123,0.979c0.589,0.253 1.052,0.623 1.388,1.107c0.336,0.484 0.504,1.086 0.504,1.805c0,0.703 -0.205,1.365 -0.615,1.986c-0.41,0.621 -1.002,1.102 -1.775,1.441c-0.774,0.34 -1.649,0.51 -2.625,0.51c-1.618,0 -2.85,-0.336 -3.698,-1.008c-0.847,-0.672 -1.388,-1.668 -1.623,-2.988Z" style="fill:#2b2b2b;fill-rule:nonzero;"/><path d="M96.162,96.661l2.18,0.27c-0.344,1.273 -0.98,2.261 -1.91,2.964c-0.93,0.704 -2.117,1.055 -3.562,1.055c-1.821,0 -3.264,-0.56 -4.331,-1.681c-1.066,-1.122 -1.599,-2.694 -1.599,-4.717c-0,-2.094 0.539,-3.719 1.617,-4.875c1.078,-1.157 2.477,-1.735 4.195,-1.735c1.664,0 3.024,0.567 4.078,1.7c1.055,1.132 1.582,2.726 1.582,4.781c0,0.125 -0.003,0.312 -0.011,0.562l-9.281,0c0.078,1.368 0.464,2.414 1.16,3.141c0.695,0.727 1.562,1.09 2.601,1.09c0.774,-0 1.434,-0.203 1.981,-0.61c0.547,-0.406 0.98,-1.054 1.3,-1.945Zm-6.925,-3.41l6.949,-0c-0.094,-1.047 -0.359,-1.832 -0.797,-2.356c-0.672,-0.812 -1.543,-1.218 -2.613,-1.218c-0.969,-0 -1.783,0.324 -2.444,0.972c-0.66,0.649 -1.025,1.516 -1.095,2.602Z" style="fill:#2b2b2b;fill-rule:nonzero;"/><path d="M169.151,100.669l-6.656,-17.18l2.461,0l4.465,12.481c0.359,1 0.66,1.937 0.902,2.812c0.266,-0.937 0.574,-1.875 0.926,-2.812l4.64,-12.481l2.321,0l-6.727,17.18l-2.332,-0Z" style="fill:#2b2b2b;fill-rule:nonzero;"/><path d="M186.319,99.134c-0.781,0.664 -1.533,1.133 -2.256,1.406c-0.722,0.273 -1.498,0.41 -2.326,0.41c-1.367,0 -2.418,-0.334 -3.152,-1.002c-0.735,-0.668 -1.102,-1.521 -1.102,-2.56c0,-0.61 0.139,-1.166 0.416,-1.67c0.278,-0.504 0.641,-0.908 1.09,-1.213c0.449,-0.305 0.955,-0.535 1.518,-0.692c0.414,-0.109 1.039,-0.214 1.875,-0.316c1.703,-0.203 2.957,-0.445 3.761,-0.727c0.008,-0.289 0.012,-0.472 0.012,-0.55c0,-0.86 -0.199,-1.465 -0.598,-1.817c-0.539,-0.476 -1.339,-0.715 -2.402,-0.715c-0.992,0 -1.725,0.174 -2.197,0.522c-0.473,0.348 -0.822,0.963 -1.049,1.846l-2.063,-0.282c0.188,-0.882 0.497,-1.595 0.926,-2.138c0.43,-0.543 1.051,-0.961 1.864,-1.254c0.812,-0.293 1.753,-0.44 2.824,-0.44c1.062,0 1.926,0.125 2.59,0.375c0.664,0.25 1.152,0.565 1.464,0.944c0.313,0.379 0.532,0.857 0.657,1.435c0.07,0.36 0.105,1.008 0.105,1.946l0,2.812c0,1.961 0.045,3.201 0.135,3.721c0.09,0.519 0.267,1.017 0.533,1.494l-2.203,-0c-0.219,-0.438 -0.359,-0.949 -0.422,-1.535Zm-0.176,-4.711c-0.765,0.312 -1.914,0.578 -3.445,0.797c-0.867,0.125 -1.48,0.265 -1.84,0.422c-0.359,0.156 -0.637,0.384 -0.832,0.685c-0.195,0.301 -0.293,0.635 -0.293,1.002c0,0.563 0.213,1.031 0.639,1.406c0.426,0.375 1.049,0.563 1.869,0.563c0.812,-0 1.535,-0.178 2.168,-0.533c0.633,-0.356 1.098,-0.842 1.394,-1.459c0.227,-0.477 0.34,-1.18 0.34,-2.11l0,-0.773Z" style="fill:#2b2b2b;fill-rule:nonzero;"/><rect x="191.499" y="83.489" width="2.109" height="17.18" style="fill:#2b2b2b;fill-rule:nonzero;"/><path d="M196.889,85.915l0,-2.426l2.11,0l-0,2.426l-2.11,0Zm0,14.754l0,-12.445l2.11,-0l-0,12.445l-2.11,-0Z" style="fill:#2b2b2b;fill-rule:nonzero;"/><path d="M210.284,100.669l-0,-1.57c-0.789,1.234 -1.949,1.851 -3.481,1.851c-0.992,0 -1.904,-0.273 -2.736,-0.82c-0.832,-0.547 -1.476,-1.311 -1.933,-2.291c-0.457,-0.981 -0.686,-2.108 -0.686,-3.381c0,-1.242 0.207,-2.369 0.621,-3.381c0.414,-1.012 1.035,-1.787 1.863,-2.326c0.829,-0.539 1.754,-0.809 2.778,-0.809c0.75,0 1.418,0.159 2.004,0.475c0.586,0.316 1.062,0.728 1.429,1.236l0,-6.164l2.098,0l-0,17.18l-1.957,-0Zm-6.668,-6.211c-0,1.594 0.336,2.785 1.008,3.574c0.672,0.789 1.465,1.184 2.379,1.184c0.922,-0 1.705,-0.377 2.349,-1.131c0.645,-0.754 0.967,-1.904 0.967,-3.451c0,-1.703 -0.328,-2.953 -0.984,-3.75c-0.657,-0.797 -1.465,-1.196 -2.426,-1.196c-0.938,0 -1.721,0.383 -2.35,1.149c-0.629,0.766 -0.943,1.973 -0.943,3.621Z" style="fill:#2b2b2b;fill-rule:nonzero;"/><path d="M223.678,99.134c-0.781,0.664 -1.533,1.133 -2.255,1.406c-0.723,0.273 -1.498,0.41 -2.327,0.41c-1.367,0 -2.418,-0.334 -3.152,-1.002c-0.734,-0.668 -1.101,-1.521 -1.101,-2.56c-0,-0.61 0.138,-1.166 0.416,-1.67c0.277,-0.504 0.64,-0.908 1.089,-1.213c0.45,-0.305 0.955,-0.535 1.518,-0.692c0.414,-0.109 1.039,-0.214 1.875,-0.316c1.703,-0.203 2.957,-0.445 3.762,-0.727c0.008,-0.289 0.011,-0.472 0.011,-0.55c0,-0.86 -0.199,-1.465 -0.597,-1.817c-0.539,-0.476 -1.34,-0.715 -2.403,-0.715c-0.992,0 -1.724,0.174 -2.197,0.522c-0.473,0.348 -0.822,0.963 -1.049,1.846l-2.062,-0.282c0.187,-0.882 0.496,-1.595 0.926,-2.138c0.429,-0.543 1.05,-0.961 1.863,-1.254c0.812,-0.293 1.754,-0.44 2.824,-0.44c1.063,0 1.926,0.125 2.59,0.375c0.664,0.25 1.152,0.565 1.465,0.944c0.312,0.379 0.531,0.857 0.656,1.435c0.07,0.36 0.106,1.008 0.106,1.946l-0,2.812c-0,1.961 0.044,3.201 0.134,3.721c0.09,0.519 0.268,1.017 0.533,1.494l-2.203,-0c-0.218,-0.438 -0.359,-0.949 -0.422,-1.535Zm-0.175,-4.711c-0.766,0.312 -1.914,0.578 -3.446,0.797c-0.867,0.125 -1.48,0.265 -1.839,0.422c-0.36,0.156 -0.637,0.384 -0.832,0.685c-0.196,0.301 -0.293,0.635 -0.293,1.002c-0,0.563 0.212,1.031 0.638,1.406c0.426,0.375 1.049,0.563 1.869,0.563c0.813,-0 1.536,-0.178 2.168,-0.533c0.633,-0.356 1.098,-0.842 1.395,-1.459c0.226,-0.477 0.34,-1.18 0.34,-2.11l-0,-0.773Z" style="fill:#2b2b2b;fill-rule:nonzero;"/><path d="M233.511,98.782l0.304,1.863c-0.594,0.125 -1.125,0.188 -1.594,0.188c-0.765,-0 -1.359,-0.121 -1.781,-0.363c-0.422,-0.242 -0.719,-0.561 -0.89,-0.955c-0.172,-0.395 -0.258,-1.225 -0.258,-2.491l-0,-7.16l-1.547,0l-0,-1.64l1.547,-0l-0,-3.082l2.097,-1.266l0,4.348l2.122,-0l-0,1.64l-2.122,0l0,7.278c0,0.601 0.038,0.988 0.112,1.16c0.074,0.172 0.195,0.308 0.363,0.41c0.168,0.101 0.408,0.152 0.721,0.152c0.234,0 0.543,-0.027 0.926,-0.082Z" style="fill:#2b2b2b;fill-rule:nonzero;"/><path d="M244.093,96.661l2.179,0.27c-0.344,1.273 -0.98,2.261 -1.91,2.964c-0.93,0.704 -2.117,1.055 -3.562,1.055c-1.821,0 -3.264,-0.56 -4.331,-1.681c-1.066,-1.122 -1.599,-2.694 -1.599,-4.717c-0,-2.094 0.539,-3.719 1.617,-4.875c1.078,-1.157 2.477,-1.735 4.195,-1.735c1.664,0 3.024,0.567 4.079,1.7c1.054,1.132 1.582,2.726 1.582,4.781c-0,0.125 -0.004,0.312 -0.012,0.562l-9.281,0c0.078,1.368 0.464,2.414 1.16,3.141c0.695,0.727 1.562,1.09 2.601,1.09c0.774,-0 1.434,-0.203 1.981,-0.61c0.547,-0.406 0.98,-1.054 1.301,-1.945Zm-6.926,-3.41l6.949,-0c-0.094,-1.047 -0.359,-1.832 -0.797,-2.356c-0.672,-0.812 -1.543,-1.218 -2.613,-1.218c-0.969,-0 -1.783,0.324 -2.444,0.972c-0.66,0.649 -1.025,1.516 -1.095,2.602Z" style="fill:#2b2b2b;fill-rule:nonzero;"/><path d="M302.116,100.669l6.598,-17.18l2.449,0l7.031,17.18l-2.589,-0l-2.004,-5.203l-7.184,-0l-1.887,5.203l-2.414,-0Zm4.957,-7.055l5.825,0l-1.793,-4.758c-0.547,-1.445 -0.953,-2.632 -1.219,-3.562c-0.219,1.101 -0.527,2.195 -0.926,3.281l-1.887,5.039Z" style="fill:#2b2b2b;fill-rule:nonzero;"/><path d="M327.862,96.11l2.075,0.27c-0.227,1.43 -0.807,2.549 -1.741,3.357c-0.933,0.809 -2.08,1.213 -3.439,1.213c-1.703,0 -3.072,-0.556 -4.107,-1.67c-1.036,-1.113 -1.553,-2.709 -1.553,-4.787c-0,-1.344 0.222,-2.519 0.668,-3.527c0.445,-1.008 1.123,-1.764 2.033,-2.268c0.91,-0.504 1.9,-0.756 2.971,-0.756c1.351,0 2.457,0.342 3.316,1.026c0.859,0.683 1.41,1.654 1.652,2.912l-2.05,0.316c-0.196,-0.836 -0.541,-1.465 -1.037,-1.886c-0.497,-0.422 -1.096,-0.633 -1.799,-0.633c-1.063,-0 -1.926,0.381 -2.59,1.142c-0.664,0.762 -0.996,1.967 -0.996,3.616c-0,1.671 0.32,2.886 0.961,3.644c0.64,0.758 1.476,1.137 2.508,1.137c0.828,-0 1.519,-0.254 2.074,-0.762c0.554,-0.508 0.906,-1.289 1.054,-2.344Z" style="fill:#2b2b2b;fill-rule:nonzero;"/><path d="M339.862,96.11l2.075,0.27c-0.227,1.43 -0.807,2.549 -1.741,3.357c-0.933,0.809 -2.08,1.213 -3.439,1.213c-1.703,0 -3.072,-0.556 -4.107,-1.67c-1.036,-1.113 -1.553,-2.709 -1.553,-4.787c-0,-1.344 0.222,-2.519 0.668,-3.527c0.445,-1.008 1.123,-1.764 2.033,-2.268c0.91,-0.504 1.9,-0.756 2.971,-0.756c1.351,0 2.457,0.342 3.316,1.026c0.859,0.683 1.41,1.654 1.652,2.912l-2.05,0.316c-0.196,-0.836 -0.541,-1.465 -1.037,-1.886c-0.497,-0.422 -1.096,-0.633 -1.799,-0.633c-1.063,-0 -1.926,0.381 -2.59,1.142c-0.664,0.762 -0.996,1.967 -0.996,3.616c-0,1.671 0.32,2.886 0.961,3.644c0.64,0.758 1.476,1.137 2.508,1.137c0.828,-0 1.519,-0.254 2.074,-0.762c0.554,-0.508 0.906,-1.289 1.054,-2.344Z" style="fill:#2b2b2b;fill-rule:nonzero;"/><path d="M352.261,96.661l2.18,0.27c-0.344,1.273 -0.981,2.261 -1.911,2.964c-0.929,0.704 -2.117,1.055 -3.562,1.055c-1.82,0 -3.264,-0.56 -4.33,-1.681c-1.067,-1.122 -1.6,-2.694 -1.6,-4.717c0,-2.094 0.539,-3.719 1.617,-4.875c1.079,-1.157 2.477,-1.735 4.196,-1.735c1.664,0 3.023,0.567 4.078,1.7c1.055,1.132 1.582,2.726 1.582,4.781c-0,0.125 -0.004,0.312 -0.012,0.562l-9.281,0c0.078,1.368 0.465,2.414 1.16,3.141c0.695,0.727 1.563,1.09 2.602,1.09c0.773,-0 1.433,-0.203 1.98,-0.61c0.547,-0.406 0.981,-1.054 1.301,-1.945Zm-6.926,-3.41l6.949,-0c-0.093,-1.047 -0.359,-1.832 -0.797,-2.356c-0.671,-0.812 -1.543,-1.218 -2.613,-1.218c-0.969,-0 -1.783,0.324 -2.443,0.972c-0.66,0.649 -1.026,1.516 -1.096,2.602Z" style="fill:#2b2b2b;fill-rule:nonzero;"/><path d="M356.245,96.954l2.086,-0.328c0.117,0.836 0.444,1.477 0.979,1.922c0.535,0.445 1.283,0.668 2.244,0.668c0.969,-0 1.687,-0.197 2.156,-0.592c0.469,-0.395 0.703,-0.857 0.703,-1.389c0,-0.476 -0.207,-0.851 -0.621,-1.125c-0.289,-0.187 -1.008,-0.425 -2.156,-0.715c-1.547,-0.39 -2.619,-0.728 -3.217,-1.013c-0.598,-0.285 -1.051,-0.68 -1.359,-1.184c-0.309,-0.504 -0.463,-1.06 -0.463,-1.67c-0,-0.554 0.127,-1.068 0.381,-1.541c0.254,-0.472 0.599,-0.865 1.037,-1.177c0.328,-0.243 0.775,-0.448 1.342,-0.616c0.566,-0.168 1.173,-0.252 1.822,-0.252c0.976,0 1.834,0.141 2.572,0.422c0.738,0.281 1.283,0.662 1.635,1.143c0.351,0.48 0.594,1.123 0.726,1.928l-2.062,0.281c-0.094,-0.641 -0.365,-1.141 -0.815,-1.5c-0.449,-0.36 -1.083,-0.539 -1.904,-0.539c-0.969,-0 -1.66,0.16 -2.074,0.48c-0.414,0.321 -0.621,0.696 -0.621,1.125c-0,0.274 0.086,0.52 0.258,0.738c0.172,0.227 0.441,0.415 0.808,0.563c0.211,0.078 0.832,0.258 1.864,0.539c1.492,0.398 2.533,0.725 3.123,0.979c0.589,0.253 1.052,0.623 1.388,1.107c0.336,0.484 0.504,1.086 0.504,1.805c0,0.703 -0.205,1.365 -0.615,1.986c-0.41,0.621 -1.002,1.102 -1.775,1.441c-0.774,0.34 -1.649,0.51 -2.625,0.51c-1.618,0 -2.85,-0.336 -3.698,-1.008c-0.847,-0.672 -1.388,-1.668 -1.623,-2.988Z" style="fill:#2b2b2b;fill-rule:nonzero;"/><path d="M368.245,96.954l2.086,-0.328c0.117,0.836 0.444,1.477 0.979,1.922c0.535,0.445 1.283,0.668 2.244,0.668c0.969,-0 1.687,-0.197 2.156,-0.592c0.469,-0.395 0.703,-0.857 0.703,-1.389c0,-0.476 -0.207,-0.851 -0.621,-1.125c-0.289,-0.187 -1.008,-0.425 -2.156,-0.715c-1.547,-0.39 -2.619,-0.728 -3.217,-1.013c-0.598,-0.285 -1.051,-0.68 -1.359,-1.184c-0.309,-0.504 -0.463,-1.06 -0.463,-1.67c-0,-0.554 0.127,-1.068 0.381,-1.541c0.254,-0.472 0.599,-0.865 1.037,-1.177c0.328,-0.243 0.775,-0.448 1.342,-0.616c0.566,-0.168 1.173,-0.252 1.822,-0.252c0.976,0 1.834,0.141 2.572,0.422c0.738,0.281 1.283,0.662 1.635,1.143c0.351,0.48 0.594,1.123 0.726,1.928l-2.062,0.281c-0.094,-0.641 -0.365,-1.141 -0.815,-1.5c-0.449,-0.36 -1.083,-0.539 -1.904,-0.539c-0.969,-0 -1.66,0.16 -2.074,0.48c-0.414,0.321 -0.621,0.696 -0.621,1.125c-0,0.274 0.086,0.52 0.258,0.738c0.172,0.227 0.441,0.415 0.808,0.563c0.211,0.078 0.832,0.258 1.864,0.539c1.492,0.398 2.533,0.725 3.123,0.979c0.589,0.253 1.052,0.623 1.388,1.107c0.336,0.484 0.504,1.086 0.504,1.805c0,0.703 -0.205,1.365 -0.615,1.986c-0.41,0.621 -1.002,1.102 -1.775,1.441c-0.774,0.34 -1.649,0.51 -2.625,0.51c-1.618,0 -2.85,-0.336 -3.698,-1.008c-0.847,-0.672 -1.388,-1.668 -1.623,-2.988Z" style="fill:#2b2b2b;fill-rule:nonzero;"/><path d="M136.454,112.69l-0,-40.94" style="fill:none;stroke:#b6b6b6;stroke-width:1px;"/><path d="M272.384,112.69l-0,-40.94" style="fill:none;stroke:#b6b6b6;stroke-width:1px;"/></g><path d="M0.524,71.75l407.79,-0" style="fill:none;stroke:#2b2b2b;stroke-width:1.05px;stroke-linecap:butt;"/></svg>